<svg xmlns="http://www.w3.org/2000/svg" xmlns:xlink="http://www.w3.org/1999/xlink" version="1.1" width="256" height="256" viewBox="0 0 256 256" xml:space="preserve">

<defs>
</defs>
<g style="stroke: none; stroke-width: 0; stroke-dasharray: none; stroke-linecap: butt; stroke-linejoin: miter; stroke-miterlimit: 10; fill: none; fill-rule: nonzero; opacity: 1;" transform="translate(1.4065934065934016 1.4065934065934016) scale(2.81 2.81)" >
	<path d="M 81.91 82.919 H 8.09 c -3.916 0 -7.09 -3.174 -7.09 -7.09 V 30.89 c 0 -3.916 3.174 -7.09 7.09 -7.09 h 73.82 c 3.916 0 7.09 3.174 7.09 7.09 v 44.938 C 89 79.744 85.826 82.919 81.91 82.919 z" style="stroke: none; stroke-width: 1; stroke-dasharray: none; stroke-linecap: butt; stroke-linejoin: miter; stroke-miterlimit: 10; fill: rgb(189,239,252); fill-rule: nonzero; opacity: 1;" transform=" matrix(1 0 0 1 0 0) " stroke-linecap="round" />
	<path d="M 51.406 7.081 H 38.594 c -4.754 0 -8.608 3.854 -8.608 8.608 v 7.986 h 6.863 v -7.183 c 0 -1.435 1.164 -2.599 2.599 -2.599 h 11.104 c 1.435 0 2.599 1.164 2.599 2.599 v 7.183 h 6.863 v -7.986 C 60.013 10.935 56.16 7.081 51.406 7.081 z" style="stroke: none; stroke-width: 1; stroke-dasharray: none; stroke-linecap: butt; stroke-linejoin: miter; stroke-miterlimit: 10; fill: rgb(189,239,252); fill-rule: nonzero; opacity: 1;" transform=" matrix(1 0 0 1 0 0) " stroke-linecap="round" />
	<polygon points="62.26,46.7 51.66,46.7 51.66,36.1 38.34,36.1 38.34,46.7 27.74,46.7 27.74,60.02 38.34,60.02 38.34,70.62 51.66,70.62 51.66,60.02 62.26,60.02 " style="stroke: none; stroke-width: 1; stroke-dasharray: none; stroke-linecap: butt; stroke-linejoin: miter; stroke-miterlimit: 10; fill: rgb(255,109,122); fill-rule: nonzero; opacity: 1;" transform="  matrix(1 0 0 1 0 0) "/>
	<path d="M 51.656 71.621 H 38.344 c -0.552 0 -1 -0.447 -1 -1 v -9.605 h -9.605 c -0.552 0 -1 -0.447 -1 -1 V 46.703 c 0 -0.553 0.448 -1 1 -1 h 9.605 v -9.605 c 0 -0.552 0.448 -1 1 -1 h 13.313 c 0.553 0 1 0.448 1 1 v 9.605 h 9.605 c 0.553 0 1 0.447 1 1 v 13.313 c 0 0.553 -0.447 1 -1 1 h -9.605 v 9.605 C 52.656 71.174 52.209 71.621 51.656 71.621 z M 39.344 69.621 h 11.313 v -9.605 c 0 -0.553 0.447 -1 1 -1 h 9.605 V 47.703 h -9.605 c -0.553 0 -1 -0.447 -1 -1 v -9.605 H 39.344 v 9.605 c 0 0.553 -0.448 1 -1 1 h -9.605 v 11.313 h 9.605 c 0.552 0 1 0.447 1 1 V 69.621 z" style="stroke: none; stroke-width: 1; stroke-dasharray: none; stroke-linecap: butt; stroke-linejoin: miter; stroke-miterlimit: 10; fill: rgb(0,0,0); fill-rule: nonzero; opacity: 1;" transform=" matrix(1 0 0 1 0 0) " stroke-linecap="round" />
	<path d="M 10.688 74.826 c -0.552 0 -1 -0.447 -1 -1 V 32.963 c 0 -0.552 0.448 -1 1 -1 s 1 0.448 1 1 v 40.863 C 11.688 74.379 11.24 74.826 10.688 74.826 z" style="stroke: none; stroke-width: 1; stroke-dasharray: none; stroke-linecap: butt; stroke-linejoin: miter; stroke-miterlimit: 10; fill: rgb(0,0,0); fill-rule: nonzero; opacity: 1;" transform=" matrix(1 0 0 1 0 0) " stroke-linecap="round" />
	<path d="M 78.234 74.826 c -0.553 0 -1 -0.447 -1 -1 V 32.963 c 0 -0.552 0.447 -1 1 -1 s 1 0.448 1 1 v 40.863 C 79.234 74.379 78.787 74.826 78.234 74.826 z" style="stroke: none; stroke-width: 1; stroke-dasharray: none; stroke-linecap: butt; stroke-linejoin: miter; stroke-miterlimit: 10; fill: rgb(0,0,0); fill-rule: nonzero; opacity: 1;" transform=" matrix(1 0 0 1 0 0) " stroke-linecap="round" />
	<path d="M 81.91 22.801 H 61.014 v -7.112 c 0 -5.297 -4.31 -9.607 -9.607 -9.607 H 38.594 c -5.298 0 -9.608 4.31 -9.608 9.607 v 7.112 H 8.09 c -4.461 0 -8.09 3.629 -8.09 8.09 v 44.938 c 0 4.461 3.629 8.091 8.09 8.091 h 73.82 c 4.461 0 8.09 -3.63 8.09 -8.091 V 30.891 C 90 26.43 86.371 22.801 81.91 22.801 z M 52.15 22.675 H 37.849 v -6.183 c 0 -0.881 0.717 -1.599 1.599 -1.599 h 11.104 c 0.882 0 1.599 0.717 1.599 1.599 V 22.675 z M 30.986 15.689 c 0 -4.195 3.413 -7.607 7.608 -7.607 h 12.812 c 4.194 0 7.607 3.413 7.607 7.607 v 6.986 H 54.15 v -6.183 c 0 -1.984 -1.614 -3.599 -3.599 -3.599 H 39.448 c -1.984 0 -3.599 1.614 -3.599 3.599 v 6.183 h -4.863 V 15.689 z M 88 75.828 c 0 3.358 -2.731 6.091 -6.09 6.091 H 8.09 c -3.358 0 -6.09 -2.732 -6.09 -6.091 V 30.891 c 0 -3.358 2.732 -6.09 6.09 -6.09 h 73.82 c 3.358 0 6.09 2.732 6.09 6.09 V 75.828 z" style="stroke: none; stroke-width: 1; stroke-dasharray: none; stroke-linecap: butt; stroke-linejoin: miter; stroke-miterlimit: 10; fill: rgb(0,0,0); fill-rule: nonzero; opacity: 1;" transform=" matrix(1 0 0 1 0 0) " stroke-linecap="round" />
</g>
</svg>