<svg xmlns="http://www.w3.org/2000/svg" xmlns:xlink="http://www.w3.org/1999/xlink" version="1.1" width="256" height="256" viewBox="0 0 256 256" xml:space="preserve">

<defs>
</defs>
<g style="stroke: none; stroke-width: 0; stroke-dasharray: none; stroke-linecap: butt; stroke-linejoin: miter; stroke-miterlimit: 10; fill: none; fill-rule: nonzero; opacity: 1;" transform="translate(1.4065934065934016 1.4065934065934016) scale(2.81 2.81)" >
	<ellipse cx="44.995999999999995" cy="82.095" rx="25.776" ry="7.325" style="stroke: none; stroke-width: 1; stroke-dasharray: none; stroke-linecap: butt; stroke-linejoin: miter; stroke-miterlimit: 10; fill: rgb(255,219,86); fill-rule: nonzero; opacity: 1;" transform=" matrix(1 0 0 1 0 0) "/>
	<path d="M 45 1 C 27.117 1 12.619 15.498 12.619 33.381 c 0 7.984 2.903 15.28 7.693 20.926 L 45 83.383 l 24.687 -29.077 c 4.79 -5.645 7.693 -12.942 7.693 -20.926 C 77.382 15.498 62.884 1 45 1 z" style="stroke: none; stroke-width: 1; stroke-dasharray: none; stroke-linecap: butt; stroke-linejoin: miter; stroke-miterlimit: 10; fill: rgb(255,74,74); fill-rule: nonzero; opacity: 1;" transform=" matrix(1 0 0 1 0 0) " stroke-linecap="round" />
	<circle cx="44.998000000000005" cy="32.268" r="22.468" style="stroke: none; stroke-width: 1; stroke-dasharray: none; stroke-linecap: butt; stroke-linejoin: miter; stroke-miterlimit: 10; fill: rgb(248,248,248); fill-rule: nonzero; opacity: 1;" transform="  matrix(1 0 0 1 0 0) "/>
	<path d="M 45 84.383 c -0.293 0 -0.572 -0.129 -0.762 -0.353 L 19.55 54.955 c -5.114 -6.029 -7.931 -13.69 -7.931 -21.574 C 11.619 14.975 26.594 0 45 0 C 53.917 0 62.3 3.472 68.604 9.777 c 6.305 6.305 9.777 14.688 9.776 23.604 c 0 7.884 -2.816 15.545 -7.931 21.573 L 45.763 84.03 C 45.573 84.254 45.294 84.383 45 84.383 z M 45 2 C 27.697 2 13.619 16.078 13.619 33.381 c 0 7.41 2.648 14.612 7.456 20.28 L 45 81.838 l 23.924 -28.179 c 4.809 -5.666 7.456 -12.868 7.456 -20.279 c 0 -8.382 -3.264 -16.262 -9.19 -22.189 C 61.263 5.264 53.383 2 45 2 z" style="stroke: none; stroke-width: 1; stroke-dasharray: none; stroke-linecap: butt; stroke-linejoin: miter; stroke-miterlimit: 10; fill: rgb(0,0,0); fill-rule: nonzero; opacity: 1;" transform=" matrix(1 0 0 1 0 0) " stroke-linecap="round" />
	<path d="M 45 55.734 c -12.94 0 -23.468 -10.528 -23.468 -23.468 S 32.06 8.798 45 8.798 s 23.468 10.528 23.468 23.468 S 57.94 55.734 45 55.734 z M 45 10.798 c -11.837 0 -21.468 9.631 -21.468 21.468 S 33.163 53.734 45 53.734 c 11.837 0 21.468 -9.631 21.468 -21.468 S 56.837 10.798 45 10.798 z" style="stroke: none; stroke-width: 1; stroke-dasharray: none; stroke-linecap: butt; stroke-linejoin: miter; stroke-miterlimit: 10; fill: rgb(0,0,0); fill-rule: nonzero; opacity: 1;" transform=" matrix(1 0 0 1 0 0) " stroke-linecap="round" />
	<path d="M 45 90 c -13.181 0 -26.524 -2.697 -26.524 -7.854 c 0 -3.468 5.883 -5.406 10.819 -6.422 c 0.539 -0.111 1.07 0.236 1.181 0.778 c 0.111 0.541 -0.237 1.069 -0.778 1.181 c -6.371 1.311 -9.222 3.186 -9.222 4.463 C 20.476 84.591 29.806 88 45 88 s 24.524 -3.409 24.524 -5.854 c 0 -1.277 -2.852 -3.152 -9.222 -4.463 c -0.541 -0.111 -0.89 -0.64 -0.778 -1.181 s 0.64 -0.886 1.181 -0.778 c 4.936 1.016 10.819 2.954 10.819 6.422 C 71.524 87.303 58.181 90 45 90 z" style="stroke: none; stroke-width: 1; stroke-dasharray: none; stroke-linecap: butt; stroke-linejoin: miter; stroke-miterlimit: 10; fill: rgb(0,0,0); fill-rule: nonzero; opacity: 1;" transform=" matrix(1 0 0 1 0 0) " stroke-linecap="round" />
	<path d="M 41.922 43.483 c -0.01 0 -0.02 0 -0.029 0 c -0.319 -0.009 -0.615 -0.17 -0.795 -0.434 l -6.354 -9.261 c -0.313 -0.456 -0.196 -1.078 0.259 -1.391 c 0.457 -0.312 1.079 -0.195 1.391 0.259 l 5.579 8.132 l 13.375 -17.226 c 0.338 -0.435 0.967 -0.516 1.403 -0.177 c 0.437 0.339 0.516 0.967 0.177 1.403 L 42.712 43.096 C 42.522 43.34 42.23 43.483 41.922 43.483 z" style="stroke: none; stroke-width: 1; stroke-dasharray: none; stroke-linecap: butt; stroke-linejoin: miter; stroke-miterlimit: 10; fill: rgb(0,0,0); fill-rule: nonzero; opacity: 1;" transform=" matrix(1 0 0 1 0 0) " stroke-linecap="round" />
</g>
</svg>