<svg xmlns="http://www.w3.org/2000/svg" xmlns:xlink="http://www.w3.org/1999/xlink" version="1.1" width="256" height="256" viewBox="0 0 256 256" xml:space="preserve">

<defs>
</defs>
<g style="stroke: none; stroke-width: 0; stroke-dasharray: none; stroke-linecap: butt; stroke-linejoin: miter; stroke-miterlimit: 10; fill: none; fill-rule: nonzero; opacity: 1;" transform="translate(1.4065934065934016 1.4065934065934016) scale(2.81 2.81)" >
	<polyline points="27.82,84.1 58.41,38.45 89,84.1 27.82,84.1 " style="stroke: none; stroke-width: 1; stroke-dasharray: none; stroke-linecap: butt; stroke-linejoin: miter; stroke-miterlimit: 10; fill: rgb(209,113,75); fill-rule: nonzero; opacity: 1;" transform="  matrix(1 0 0 1 0 0) "/>
	<polyline points="27.82,84.1 1,84.1 25.03,48.23 38.44,68.24 " style="stroke: none; stroke-width: 1; stroke-dasharray: none; stroke-linecap: butt; stroke-linejoin: miter; stroke-miterlimit: 10; fill: rgb(229,139,108); fill-rule: nonzero; opacity: 1;" transform="  matrix(1 0 0 1 0 0) "/>
	<rect x="29.23" y="5.9" rx="0" ry="0" width="29.18" height="18.19" style="stroke: none; stroke-width: 1; stroke-dasharray: none; stroke-linecap: butt; stroke-linejoin: miter; stroke-miterlimit: 10; fill: rgb(232,79,79); fill-rule: nonzero; opacity: 1;" transform=" matrix(1 0 0 1 0 0) "/>
	<path d="M 89 85.097 H 27.82 c -0.369 0 -0.708 -0.203 -0.882 -0.529 c -0.174 -0.325 -0.154 -0.721 0.052 -1.027 l 30.589 -45.646 c 0.371 -0.555 1.291 -0.555 1.662 0 l 30.59 45.646 c 0.205 0.307 0.225 0.702 0.051 1.027 C 89.708 84.894 89.369 85.097 89 85.097 z M 29.694 83.097 h 57.432 L 58.41 40.248 L 29.694 83.097 z" style="stroke: none; stroke-width: 1; stroke-dasharray: none; stroke-linecap: butt; stroke-linejoin: miter; stroke-miterlimit: 10; fill: rgb(0,0,0); fill-rule: nonzero; opacity: 1;" transform=" matrix(1 0 0 1 0 0) " stroke-linecap="round" />
	<path d="M 27.82 85.097 H 1 c -0.369 0 -0.708 -0.203 -0.882 -0.529 c -0.174 -0.325 -0.154 -0.721 0.052 -1.027 l 24.034 -35.863 c 0.371 -0.555 1.29 -0.555 1.661 0 l 13.411 20.011 c 0.308 0.459 0.185 1.08 -0.274 1.388 c -0.459 0.306 -1.08 0.185 -1.387 -0.274 l -12.58 -18.771 L 2.874 83.097 H 27.82 c 0.552 0 1 0.447 1 1 S 28.373 85.097 27.82 85.097 z" style="stroke: none; stroke-width: 1; stroke-dasharray: none; stroke-linecap: butt; stroke-linejoin: miter; stroke-miterlimit: 10; fill: rgb(0,0,0); fill-rule: nonzero; opacity: 1;" transform=" matrix(1 0 0 1 0 0) " stroke-linecap="round" />
	<path d="M 58.41 39.451 c -0.553 0 -1 -0.448 -1 -1 V 5.903 c 0 -0.552 0.447 -1 1 -1 s 1 0.448 1 1 v 32.548 C 59.41 39.003 58.963 39.451 58.41 39.451 z" style="stroke: none; stroke-width: 1; stroke-dasharray: none; stroke-linecap: butt; stroke-linejoin: miter; stroke-miterlimit: 10; fill: rgb(0,0,0); fill-rule: nonzero; opacity: 1;" transform=" matrix(1 0 0 1 0 0) " stroke-linecap="round" />
	<path d="M 58.41 25.092 H 29.229 c -0.552 0 -1 -0.448 -1 -1 V 5.903 c 0 -0.552 0.448 -1 1 -1 H 58.41 c 0.553 0 1 0.448 1 1 v 18.188 C 59.41 24.644 58.963 25.092 58.41 25.092 z M 30.229 23.092 H 57.41 V 6.903 H 30.229 V 23.092 z" style="stroke: none; stroke-width: 1; stroke-dasharray: none; stroke-linecap: butt; stroke-linejoin: miter; stroke-miterlimit: 10; fill: rgb(0,0,0); fill-rule: nonzero; opacity: 1;" transform=" matrix(1 0 0 1 0 0) " stroke-linecap="round" />
</g>
</svg>