<svg fill="white" height="84px" width="84px" version="1.1" id="Capa_1" xmlns="http://www.w3.org/2000/svg" xmlns:xlink="http://www.w3.org/1999/xlink" viewBox="0 0 372 372" xml:space="preserve"><g id="SVGRepo_bgCarrier" stroke-width="0"></g><g id="SVGRepo_tracerCarrier" stroke-linecap="round" stroke-linejoin="round"></g><g id="SVGRepo_iconCarrier"> <g> <path d="M254.864,144.827c-4.798,0-8.701,3.903-8.701,8.701s3.903,8.701,8.701,8.701c4.798,0,8.702-3.903,8.702-8.701 S259.663,144.827,254.864,144.827z"></path> <path d="M99.128,139.785c-4.798,0-8.701,3.903-8.701,8.701s3.903,8.701,8.701,8.701c4.798,0,8.702-3.903,8.702-8.701 S103.926,139.785,99.128,139.785z"></path> <path d="M188.827,94.119c-4.798,0-8.701,3.903-8.701,8.701s3.903,8.701,8.701,8.701c4.798,0,8.702-3.903,8.702-8.701 S193.625,94.119,188.827,94.119z"></path> <path d="M130.504,66.119c-4.798,0-8.701,3.903-8.701,8.701s3.903,8.701,8.701,8.701c4.798,0,8.702-3.903,8.702-8.701 S135.302,66.119,130.504,66.119z"></path> <path d="M258.969,79.556c0-4.798-3.903-8.701-8.702-8.701c-4.798,0-8.701,3.903-8.701,8.701s3.903,8.701,8.701,8.701 C255.065,88.257,258.969,84.353,258.969,79.556z"></path> <path d="M186,0C83.439,0,0,83.439,0,186s83.439,186,186,186s186-83.439,186-186S288.561,0,186,0z M47.584,277.526 c-6.082-9.167-11.277-18.969-15.464-29.285c0.312-0.245,0.616-0.505,0.904-0.792l24.055-24.055l22.319,22.319L47.584,277.526z M186,352c-50.492,0-95.783-22.666-126.254-58.35l65.317-65.318l24.385,24.385c1.875,1.875,4.419,2.929,7.071,2.929 s5.196-1.054,7.071-2.929l25.47-25.471l25.47,25.471c1.875,1.875,4.419,2.929,7.071,2.929s5.196-1.054,7.071-2.929l23.917-23.917 l62.024,62.024C284.15,328.134,237.812,352,186,352z M139.206,214.189l49.387-49.387l49.856,49.856l-16.846,16.846l-25.47-25.471 c-1.875-1.875-4.419-2.929-7.071-2.929s-5.196,1.054-7.071,2.929l-25.47,25.471L139.206,214.189z M326.455,274.379l-31.259-31.258 l19.726-19.726l24.055,24.055c0.288,0.288,0.592,0.547,0.904,0.792C336.168,257.386,331.666,266.127,326.455,274.379z M321.993,202.181c-3.905-3.905-10.237-3.905-14.143,0l-26.797,26.797l-85.39-85.39c-1.875-1.875-4.418-2.929-7.071-2.929 s-5.196,1.054-7.071,2.929l-87.982,87.982l-29.39-29.39c-3.905-3.905-10.237-3.905-14.143,0L25.14,227.048 C21.787,213.915,20,200.163,20,186C20,94.467,94.467,20,186,20s166,74.467,166,166c0,14.163-1.787,27.915-5.14,41.048 L321.993,202.181z"></path> </g> </g></svg>