<svg xmlns="http://www.w3.org/2000/svg" xmlns:xlink="http://www.w3.org/1999/xlink" version="1.1" width="256" height="256" viewBox="0 0 256 256" xml:space="preserve">

<defs>
</defs>
<g style="stroke: none; stroke-width: 0; stroke-dasharray: none; stroke-linecap: butt; stroke-linejoin: miter; stroke-miterlimit: 10; fill: none; fill-rule: nonzero; opacity: 1;" transform="translate(1.4065934065934016 1.4065934065934016) scale(2.81 2.81)" >
	<circle cx="45" cy="45" r="45" style="stroke: none; stroke-width: 1; stroke-dasharray: none; stroke-linecap: butt; stroke-linejoin: miter; stroke-miterlimit: 10; fill: rgb(32,196,203); fill-rule: nonzero; opacity: 1;" transform="  matrix(1 0 0 1 0 0) "/>
	<path d="M 61.048 57.286 c 0 10.612 -8.603 19.214 -19.214 19.214 s -19.214 -8.603 -19.214 -19.214 c 0 -4.827 1.78 -9.238 4.719 -12.613 c 3.523 -4.045 8.71 -6.601 14.495 -6.601 C 52.445 38.071 61.048 46.674 61.048 57.286 z" style="stroke: none; stroke-width: 1; stroke-dasharray: none; stroke-linecap: butt; stroke-linejoin: miter; stroke-miterlimit: 10; fill: rgb(27,167,173); fill-rule: nonzero; opacity: 1;" transform=" matrix(1 0 0 1 0 0) " stroke-linecap="round" />
	<path d="M 41.833 77 c -10.871 0 -19.714 -8.844 -19.714 -19.715 c 0 -4.761 1.72 -9.356 4.842 -12.941 c 3.748 -4.304 9.169 -6.772 14.872 -6.772 c 10.871 0 19.714 8.844 19.714 19.714 C 61.548 68.156 52.704 77 41.833 77 z M 41.833 38.571 c -5.414 0 -10.56 2.343 -14.118 6.429 c -2.964 3.403 -4.596 7.765 -4.596 12.285 C 23.119 67.604 31.514 76 41.833 76 c 10.319 0 18.714 -8.396 18.714 -18.715 S 52.152 38.571 41.833 38.571 z" style="stroke: none; stroke-width: 1; stroke-dasharray: none; stroke-linecap: butt; stroke-linejoin: miter; stroke-miterlimit: 10; fill: rgb(27,167,173); fill-rule: nonzero; opacity: 1;" transform=" matrix(1 0 0 1 0 0) " stroke-linecap="round" />
	<path d="M 41.833 19.833 c -2.638 8.341 -6.864 16.501 -14.17 24.479 h 14.17 V 19.833 z" style="stroke: none; stroke-width: 1; stroke-dasharray: none; stroke-linecap: butt; stroke-linejoin: miter; stroke-miterlimit: 10; fill: rgb(27,167,173); fill-rule: nonzero; opacity: 1;" transform=" matrix(1 0 0 1 0 0) " stroke-linecap="round" />
	<path d="M 41.833 44.813 h -14.17 c -0.198 0 -0.378 -0.117 -0.458 -0.298 c -0.08 -0.182 -0.045 -0.393 0.089 -0.54 c 6.557 -7.16 11.156 -15.106 14.062 -24.292 c 0.074 -0.235 0.315 -0.38 0.553 -0.343 c 0.244 0.038 0.424 0.248 0.424 0.494 v 24.479 C 42.333 44.589 42.11 44.813 41.833 44.813 z M 28.788 43.813 h 12.546 V 22.854 C 38.494 30.635 34.367 37.524 28.788 43.813 z" style="stroke: none; stroke-width: 1; stroke-dasharray: none; stroke-linecap: butt; stroke-linejoin: miter; stroke-miterlimit: 10; fill: rgb(27,167,173); fill-rule: nonzero; opacity: 1;" transform=" matrix(1 0 0 1 0 0) " stroke-linecap="round" />
	<path d="M 41.833 19.833 c 2.638 8.341 6.864 16.501 14.17 24.479 h -14.17 V 19.833 z" style="stroke: none; stroke-width: 1; stroke-dasharray: none; stroke-linecap: butt; stroke-linejoin: miter; stroke-miterlimit: 10; fill: rgb(27,167,173); fill-rule: nonzero; opacity: 1;" transform=" matrix(1 0 0 1 0 0) " stroke-linecap="round" />
	<path d="M 56.003 44.813 H 41.833 c -0.276 0 -0.5 -0.224 -0.5 -0.5 V 19.833 c 0 -0.247 0.18 -0.457 0.424 -0.494 c 0.243 -0.037 0.479 0.108 0.553 0.343 c 2.906 9.186 7.505 17.132 14.062 24.292 c 0.134 0.146 0.168 0.358 0.089 0.54 C 56.381 44.695 56.201 44.813 56.003 44.813 z M 42.333 43.813 h 12.545 c -5.579 -6.289 -9.706 -13.178 -12.545 -20.958 V 43.813 z" style="stroke: none; stroke-width: 1; stroke-dasharray: none; stroke-linecap: butt; stroke-linejoin: miter; stroke-miterlimit: 10; fill: rgb(27,167,173); fill-rule: nonzero; opacity: 1;" transform=" matrix(1 0 0 1 0 0) " stroke-linecap="round" />
	<path d="M 64.381 53.952 c 0 10.612 -8.603 19.214 -19.214 19.214 s -19.214 -8.603 -19.214 -19.214 c 0 -4.827 1.78 -9.238 4.719 -12.613 c 3.523 -4.045 8.71 -6.601 14.495 -6.601 C 55.778 34.738 64.381 43.34 64.381 53.952 z" style="stroke: none; stroke-width: 1; stroke-dasharray: none; stroke-linecap: butt; stroke-linejoin: miter; stroke-miterlimit: 10; fill: rgb(255,255,255); fill-rule: nonzero; opacity: 1;" transform=" matrix(1 0 0 1 0 0) " stroke-linecap="round" />
	<path d="M 45.167 73.667 c -10.871 0 -19.714 -8.844 -19.714 -19.715 c 0 -4.761 1.72 -9.356 4.842 -12.942 c 3.749 -4.304 9.169 -6.772 14.872 -6.772 c 10.871 0 19.714 8.844 19.714 19.714 C 64.881 64.823 56.037 73.667 45.167 73.667 z M 45.167 35.238 c -5.414 0 -10.56 2.343 -14.118 6.43 c -2.964 3.403 -4.596 7.766 -4.596 12.285 c 0 10.319 8.395 18.715 18.714 18.715 c 10.319 0 18.714 -8.396 18.714 -18.715 S 55.485 35.238 45.167 35.238 z" style="stroke: none; stroke-width: 1; stroke-dasharray: none; stroke-linecap: butt; stroke-linejoin: miter; stroke-miterlimit: 10; fill: rgb(255,255,255); fill-rule: nonzero; opacity: 1;" transform=" matrix(1 0 0 1 0 0) " stroke-linecap="round" />
	<path d="M 45.167 16.5 c -2.638 8.341 -6.864 16.501 -14.17 24.479 l 14.17 0 V 16.5 z" style="stroke: none; stroke-width: 1; stroke-dasharray: none; stroke-linecap: butt; stroke-linejoin: miter; stroke-miterlimit: 10; fill: rgb(255,255,255); fill-rule: nonzero; opacity: 1;" transform=" matrix(1 0 0 1 0 0) " stroke-linecap="round" />
	<path d="M 45.167 41.479 h -14.17 c -0.198 0 -0.378 -0.117 -0.458 -0.298 c -0.08 -0.182 -0.045 -0.393 0.089 -0.54 c 6.556 -7.159 11.156 -15.104 14.062 -24.292 c 0.075 -0.235 0.313 -0.377 0.553 -0.343 c 0.244 0.038 0.424 0.248 0.424 0.494 v 24.479 C 45.667 41.255 45.443 41.479 45.167 41.479 z M 32.121 40.479 h 12.546 V 19.521 C 41.826 27.302 37.7 34.191 32.121 40.479 z" style="stroke: none; stroke-width: 1; stroke-dasharray: none; stroke-linecap: butt; stroke-linejoin: miter; stroke-miterlimit: 10; fill: rgb(255,255,255); fill-rule: nonzero; opacity: 1;" transform=" matrix(1 0 0 1 0 0) " stroke-linecap="round" />
	<path d="M 45.167 16.5 c 2.638 8.341 6.864 16.501 14.17 24.479 l -14.17 0 V 16.5 z" style="stroke: none; stroke-width: 1; stroke-dasharray: none; stroke-linecap: butt; stroke-linejoin: miter; stroke-miterlimit: 10; fill: rgb(255,255,255); fill-rule: nonzero; opacity: 1;" transform=" matrix(1 0 0 1 0 0) " stroke-linecap="round" />
	<path d="M 59.337 41.479 h -14.17 c -0.276 0 -0.5 -0.224 -0.5 -0.5 V 16.5 c 0 -0.247 0.18 -0.457 0.424 -0.494 c 0.241 -0.034 0.479 0.108 0.553 0.343 c 2.906 9.187 7.505 17.133 14.063 24.292 c 0.134 0.146 0.168 0.358 0.089 0.54 C 59.715 41.362 59.535 41.479 59.337 41.479 z M 45.667 40.479 h 12.546 c -5.58 -6.288 -9.706 -13.177 -12.546 -20.958 V 40.479 z" style="stroke: none; stroke-width: 1; stroke-dasharray: none; stroke-linecap: butt; stroke-linejoin: miter; stroke-miterlimit: 10; fill: rgb(255,255,255); fill-rule: nonzero; opacity: 1;" transform=" matrix(1 0 0 1 0 0) " stroke-linecap="round" />
</g>
</svg>